<mxfile host="65bd71144e">
    <diagram id="sNpQaxqfH-iS4MRPmAWm" name="ページ1">
        <mxGraphModel dx="690" dy="573" grid="1" gridSize="10" guides="1" tooltips="1" connect="1" arrows="1" fold="1" page="1" pageScale="1" pageWidth="1654" pageHeight="1169" background="#ffffff" math="0" shadow="0">
            <root>
                <mxCell id="0"/>
                <mxCell id="1" parent="0"/>
                <mxCell id="8" value="" style="verticalLabelPosition=bottom;verticalAlign=top;html=1;shape=mxgraph.basic.rect;fillColor2=none;strokeWidth=1;size=20;indent=5;fillColor=#fff2cc;strokeColor=#d6b656;" parent="1" vertex="1">
                    <mxGeometry x="40" y="40" width="880" height="400" as="geometry"/>
                </mxCell>
                <mxCell id="5" style="edgeStyle=none;html=1;startArrow=block;startFill=1;" parent="1" source="2" target="4" edge="1">
                    <mxGeometry relative="1" as="geometry"/>
                </mxCell>
                <mxCell id="2" value="Postgres&lt;br&gt;SQL" style="shape=cylinder3;whiteSpace=wrap;html=1;boundedLbl=1;backgroundOutline=1;size=15;" parent="1" vertex="1">
                    <mxGeometry x="80" y="230" width="60" height="80" as="geometry"/>
                </mxCell>
                <mxCell id="3" value="React UI" style="swimlane;whiteSpace=wrap;html=1;" parent="1" vertex="1">
                    <mxGeometry x="600" y="170" width="200" height="200" as="geometry"/>
                </mxCell>
                <mxCell id="6" style="edgeStyle=none;html=1;entryX=0;entryY=0.5;entryDx=0;entryDy=0;startArrow=block;startFill=1;" parent="1" source="4" target="3" edge="1">
                    <mxGeometry relative="1" as="geometry"/>
                </mxCell>
                <mxCell id="4" value="Astro / Next.js" style="shape=process;whiteSpace=wrap;html=1;backgroundOutline=1;" parent="1" vertex="1">
                    <mxGeometry x="310" y="240" width="120" height="60" as="geometry"/>
                </mxCell>
                <mxCell id="7" value="prisma&lt;br&gt;(TypedSQL)" style="whiteSpace=wrap;html=1;shape=mxgraph.basic.roundRectCallout;dx=30;dy=15;size=5;boundedLbl=1;" parent="1" vertex="1">
                    <mxGeometry x="200" y="210" width="100" height="60" as="geometry"/>
                </mxCell>
            </root>
        </mxGraphModel>
    </diagram>
</mxfile>